<?xml version="1.0" encoding="UTF-8"?>
<svg width="256" height="256" version="1.1" viewBox="0 0 67.733 67.733" xml:space="preserve" xmlns="http://www.w3.org/2000/svg">
<path d="m37.788 9.0749c-2.3989 0-4.6803 0.37602-6.844 1.1286-2.1167 0.70556-3.9746 1.7169-5.5738 3.0339-1.5522 1.27-2.7991 2.8221-3.7398 4.6566-0.8937 1.7874-1.3405 3.7398-1.3405 5.8565 0 1.7874 0.28253 3.3865 0.84698 4.7976 0.56444 1.3641 1.317 2.5872 2.2577 3.669 0.98778 1.0348 2.0931 1.9284 3.3161 2.681 0.1055 0.06493 0.21161 0.12838 0.31781 0.1912l10.459-3.9279-1.6748-0.63769c-2.4459-0.94074-4.2806-1.9521-5.5035-3.0339-1.223-1.0819-1.8345-2.493-1.8345-4.2333 0-1.0348 0.23553-1.9759 0.7059-2.8226 0.47037-0.84667 1.0814-1.5522 1.834-2.1167 0.79963-0.56444 1.717-0.98747 2.7518-1.2697 1.0818-0.32926 2.1872-0.49403 3.3161-0.49403 1.3641 0 2.5402 0.18801 3.528 0.56431 0.98778 0.32926 1.8111 0.77656 2.4696 1.341 0.65852 0.56444 1.1523 1.2225 1.4816 1.9751 0.3763 0.70555 0.63507 1.4111 0.77618 2.1167l7.4786-2.822c-0.18815-1.0818-0.61117-2.2342-1.2697-3.4572-0.61148-1.27-1.5288-2.4223-2.7518-3.4572-1.1759-1.0819-2.681-1.9754-4.5155-2.681-1.7874-0.70555-3.9511-1.0583-6.4911-1.0583z" fill="#4f96ff" stroke-width=".26458"/>
<path d="m40.7 32.472-10.762 4.0416c0.19306 0.07588 0.38726 0.1489 0.58239 0.21859l2.7513 0.98754c3.1044 1.1289 5.2919 2.3282 6.5619 3.5982 1.317 1.27 1.9756 2.8696 1.9756 4.7982 0 1.27-0.28202 2.3986-0.84646 3.3864-0.51741 0.98778-1.2467 1.8343-2.1875 2.5399-0.8937 0.70555-1.952 1.2469-3.175 1.6232-1.1759 0.3763-2.399 0.56431-3.669 0.56431-1.4111 0-2.6807-0.25877-3.8096-0.77618-1.1289-0.51741-2.0932-1.1992-2.8928-2.0459-0.77193-0.86275-1.389-1.8362-1.8542-2.9182l4.8772-1.8423-12.056-5.4457-5.4457 12.056 4.6948-1.773c0.31187 0.84513 0.6801 1.6428 1.1054 2.3921 0.98778 1.7404 2.1871 3.1985 3.5982 4.3744 1.4581 1.1759 3.1048 2.07 4.9392 2.6815 1.8815 0.61148 3.8566 0.91726 5.9263 0.91726 2.7281 0 5.2451-0.39978 7.5499-1.1994 2.3518-0.79963 4.374-1.9287 6.0673-3.3869 1.6933-1.4581 3.0104-3.222 3.9512-5.2917 0.94074-2.0696 1.4113-4.3511 1.4113-6.844 0-1.7404-0.28202-3.3162-0.84646-4.7274-0.56444-1.4111-1.3408-2.6575-2.3285-3.7393-0.98778-1.0818-2.1871-2.0224-3.5982-2.822-0.79966-0.49634-1.6403-0.95184-2.5208-1.3674z" fill="#002a95" stroke-width=".26458"/>
</svg>
